PathFileType	4	(X/Y/Z)	/Users/niels/Desktop/University/Third Semester/Perception and Action/Exam/Gymnastics Motion Tracking/Code for Gym Tracking/Analyzed Data/Webcam_Backflip/id6_1_baseline_Sports2D/id6_1_baseline_Sports2D_px_person00.trc
DataRate	CameraRate	NumFrames	NumMarkers	Units	OrigDataRate	OrigDataStartFrame	OrigNumFrames
29.702970297029704	29.702970297029704	11	22	m	29.702970297029704	63	101
Frame#	Time	Hip			RHip			RKnee			RAnkle			RBigToe			RSmallToe			RHeel			LHip			LKnee			LAnkle			LBigToe			LSmallToe			LHeel			Neck			Head			Nose			RShoulder			RElbow			RWrist			LShoulder			LElbow			LWrist		
		X1	Y1	Z1	X2	Y2	Z2	X3	Y3	Z3	X4	Y4	Z4	X5	Y5	Z5	X6	Y6	Z6	X7	Y7	Z7	X8	Y8	Z8	X9	Y9	Z9	X10	Y10	Z10	X11	Y11	Z11	X12	Y12	Z12	X13	Y13	Z13	X14	Y14	Z14	X15	Y15	Z15	X16	Y16	Z16	X17	Y17	Z17	X18	Y18	Z18	X19	Y19	Z19	X20	Y20	Z20	X21	Y21	Z21	X22	Y22	Z22
63	2.121	0.9403914850719554	-0.7156463264874067	0.0	0.9321740716156336	-0.7132794666128205	0.0	0.9242526596243609	-1.0039544192469056	0.0	0.9011530768238163	-1.1275018388101752	0.0	0.9724762642244269	-1.087607977944928	0.0	0.954434398123234	-1.1489640411984383	0.0	0.8715377574111214	-1.1254025857697947	0.0	0.9574922908686391	-0.7219640114780799	0.0	0.9354192234674326	-0.9910335206342742	0.0	0.9138116946991516	-1.1015778177242235	0.0	1.0108160226543665	-1.1011130005023362	0.0	0.9984968146978472	-1.104025807018286	0.0	0.8686855995231617	-1.1045475936119291	0.0	0.9639787270248993	-0.4045408513837564	0.0	1.0203671000344672	-0.2710546588832603	0.0	1.0165168475390447	-0.3448659306137648	0.0	0.9216967328345799	-0.4072086829765871	0.0	0.97104637175243	-0.2561492296820271	0.0	1.0293141382092272	-0.12380979462057662	0.0	0.9866772869857822	-0.46561434919711275	0.0	1.02257698900462	-0.5978715074012859	0.0	1.0364703287263763	-0.5592650754558749	0.0
64	2.1546666666666665	0.9439938359550916	-0.7138154137275079	0.0	0.9276369373335599	-0.7114255130351821	0.0	0.9222725803548701	-1.0045795684411107	0.0	0.8988591599907668	-1.1238878652125128	0.0	0.9724765541489425	-1.087607893595206	0.0	0.9544333517938058	-1.1489626194092137	0.0	0.8686505819507792	-1.1211555807487934	0.0	0.9674161462192972	-0.7213273487065194	0.0	0.9417749498966314	-0.9930302948627595	0.0	0.9169797760728369	-1.1020344962673603	0.0	1.0145730017827828	-1.103098952652309	0.0	1.0006771066198406	-1.1016105028649705	0.0	0.8702516827383581	-1.1018069192225934	0.0	0.9671237820307319	-0.40295957272407745	0.0	1.0186836716131082	-0.2691441526178186	0.0	1.0147754430690614	-0.3443801414504861	0.0	0.9175345398897146	-0.4074530587454842	0.0	0.952018884931813	-0.2515099516330444	0.0	1.0005308561190622	-0.1133800099654589	0.0	0.997880154431388	-0.46814939132348127	0.0	1.03710233720088	-0.60203711906745	0.0	1.0426558806379478	-0.5580786002894267	0.0
65	2.188333333333333	0.9471588281908573	-0.711807084244959	0.0	0.9235394704695317	-0.7093810536508492	0.0	0.9205141930922592	-1.0035153378044435	0.0	0.8968161777701621	-1.1165546038376857	0.0	0.9724768504556393	-1.087607888803206	0.0	0.9544293179516182	-1.148956361979539	0.0	0.8667205571280351	-1.1160410027890941	0.0	0.9746940474683891	-0.7209180128588335	0.0	0.9477949679863971	-0.9945440700024953	0.0	0.9195011135035671	-1.1008011260829056	0.0	1.016240421123398	-1.1038980855897107	0.0	1.0026596307426114	-1.0992637480817369	0.0	0.8722848801974659	-1.0982613167799828	0.0	0.969870779345389	-0.4013121865924908	0.0	1.0157924916497747	-0.2671956385308702	0.0	1.0130777564844557	-0.3427741944321539	0.0	0.9138604655927348	-0.40739969922199026	0.0	0.9335129114631949	-0.24964945145895845	0.0	0.9719173731745121	-0.10627975614680402	0.0	1.007140770982296	-0.46946564435514687	0.0	1.0506835412679478	-0.6052609271230632	0.0	1.0494115263496275	-0.5566759777041198	0.0
66	2.222	0.9497757625342752	-0.7100705280851335	0.0	0.9205331062152204	-0.7075157542748832	0.0	0.9192128257658149	-1.0013736896343106	0.0	0.8953457571157715	-1.1086882272969762	0.0	0.9724769681509555	-1.0876080794049305	0.0	0.954420683601463	-1.1489424804177524	0.0	0.8658447658134445	-1.1112255764333778	0.0	0.9796956756274608	-0.7209114386078472	0.0	0.9528526086915577	-0.995709078818855	0.0	0.9214714268526301	-1.0986710033633098	0.0	1.0165955940700593	-1.1039916662801352	0.0	1.005058516344178	-1.098254717309297	0.0	0.8760941106918161	-1.0946881256514747	0.0	0.972178282112478	-0.40000640043599006	0.0	1.0126675726553551	-0.2659068530777822	0.0	1.011882418318126	-0.3403906282149722	0.0	0.9105685717919433	-0.40715317580746907	0.0	0.9155408664843646	-0.2503270349598409	0.0	0.9435263974832793	-0.10274842220304337	0.0	1.015144508309374	-0.4704492644117749	0.0	1.062245188244727	-0.608120233856012	0.0	1.0554364907416907	-0.5552387064301162	0.0
67	2.2556666666666665	0.9518632157707917	-0.70884481669706	0.0	0.9188043096998274	-0.7061405009691506	0.0	0.9184734022948269	-0.9985705921573099	0.0	0.8944508902081358	-1.1025937946389708	0.0	0.9724765760864157	-1.087608618692803	0.0	0.9544065483565445	-1.1489192030737774	0.0	0.8658559434121263	-1.1075621744796713	0.0	0.983086166560403	-0.7213351492371961	0.0	0.9566902869272708	-0.9966162572736853	0.0	0.9229536356341893	-1.0967260742231097	0.0	1.0163134418581832	-1.1037684064324749	0.0	1.0077432190762101	-1.0996553795130108	0.0	0.8820945115271054	-1.091528115208526	0.0	0.9741914856742784	-0.39906225268700946	0.0	1.0099529181615166	-0.26546368821720123	0.0	1.0112198416077032	-0.3374694486946327	0.0	0.9075770516487853	-0.4069146933209648	0.0	0.8982164539890178	-0.25324142347987416	0.0	0.9152847940667149	-0.10255764871567849	0.0	1.0223578625074297	-0.4715709832352582	0.0	1.070969447421055	-0.6111784325563056	0.0	1.060251377764216	-0.5540724424854166	0.0
68	2.289333333333333	0.9534667427262878	-0.7081711075938442	0.0	0.91815084892163	-0.7054787347504871	0.0	0.9182510638332195	-0.9954823934094181	0.0	0.8939473609373068	-1.0994037399952683	0.0	0.9724752054027582	-1.0876096502826962	0.0	0.9543883266267351	-1.1488883795774867	0.0	0.8664748063114159	-1.1053071036776192	0.0	0.9855050040853105	-0.7220799628650313	0.0	0.959307968279265	-0.9972831388970346	0.0	0.9238686130866577	-1.0959560366528793	0.0	1.015844337800281	-1.1034736808005325	0.0	1.009973798007864	-1.1044151421264994	0.0	0.8891895953451205	-1.0888312210728321	0.0	0.976156824494698	-0.39837742715387364	0.0	1.0079437478975104	-0.26563155513884	0.0	1.0109563056170943	-0.3341792204586494	0.0	0.9049196745405422	-0.4069300493142909	0.0	0.8816023100771159	-0.2580733504015872	0.0	0.887191358527182	-0.10506371098141987	0.0	1.0289664934850145	-0.4728565677062737	0.0	1.0766919342171994	-0.6147726016278505	0.0	1.063890990365959	-0.5533732640848885	0.0
69	2.323	0.9546856289177742	-0.7079211947385357	0.0	0.9182176359780885	-0.7056197400876584	0.0	0.9183416014623	-0.9925623809311875	0.0	0.8936070315976248	-1.0995979390394306	0.0	0.9724723600210785	-1.0876112003385114	0.0	0.9543721158441051	-1.148859423024604	0.0	0.8674719332812729	-1.1042889005242336	0.0	0.9875111958537305	-0.7229649374276246	0.0	0.9609419184792372	-0.9975752241142506	0.0	0.9241954759054924	-1.0971160246238951	0.0	1.0154241539706046	-1.1032272645663692	0.0	1.0109628949140144	-1.1132399305766603	0.0	0.8955363354047914	-1.0864124486069384	0.0	0.9782738210626323	-0.39787867952776756	0.0	1.0066990737913424	-0.266053284130725	0.0	1.010981544730858	-0.3307774777246898	0.0	0.9027270006665039	-0.4073437411823291	0.0	0.8656507204309664	-0.26439804693419955	0.0	0.8593648356411044	-0.1095768324078238	0.0	1.0349857722492204	-0.4740927747629445	0.0	1.0800065898157465	-0.618769981700973	0.0	1.0665690043586458	-0.5530554879215822	0.0
70	2.3566666666666665	0.9557366345786876	-0.7078800043945437	0.0	0.9186845540923045	-0.7065229388274514	0.0	0.9184512835901663	-0.9902616230182517	0.0	0.8932506809740708	-1.103113140396213	0.0	0.9724678021276353	-1.0876129933294636	0.0	0.9543713724393579	-1.1488539160714202	0.0	0.868676165828309	-1.1041667378130289	0.0	0.9896055842506049	-0.723859514546861	0.0	0.9620517606089173	-0.9972853439910877	0.0	0.9240816435427899	-1.100555852540936	0.0	1.015136194672195	-1.1030647503635191	0.0	1.0103964207556213	-1.1262819111337186	0.0	0.9001190994007684	-1.084143157943389	0.0	0.9806008981111269	-0.39748197671621965	0.0	1.0061487986000215	-0.2664519971703052	0.0	1.0111366630210867	-0.32760147239770976	0.0	0.901097660569658	-0.4081589892349672	0.0	0.8503017207784322	-0.2716691139057382	0.0	0.8319305209459343	-0.11571909891009306	0.0	1.0404758185664706	-0.47510901287708035	0.0	1.082102966632864	-0.622551147495599	0.0	1.068545193249212	-0.5528036226003926	0.0
71	2.390333333333333	0.9568717100763466	-0.7078612340535304	0.0	0.9192987783126725	-0.7079928708863138	0.0	0.9183648446488951	-0.9888508577630247	0.0	0.8927874421126074	-1.1089265228908238	0.0	0.9724620749682292	-1.0876142029526101	0.0	0.9544085842272223	-1.1489088146301212	0.0	0.8698957295296001	-1.104478475912509	0.0	0.992121050797585	-0.7247312049746363	0.0	0.963114259610666	-0.9964135946450059	0.0	0.9237020972902669	-1.1056828908195635	0.0	1.0149779558734768	-1.1029778686458256	0.0	1.0084978865209149	-1.1422401292085997	0.0	0.9031357021026587	-1.0820600174064692	0.0	0.9830520444399602	-0.3970400149233356	0.0	1.006148651111819	-0.26665653499318354	0.0	1.0111370193315767	-0.3249051650717521	0.0	0.90003941815778	-0.4092712432456778	0.0	0.8356804751398995	-0.2793930819756385	0.0	0.8049351498190133	-0.12353264350564458	0.0	1.0455794820500488	-0.47586863164777476	0.0	1.0841777737313802	-0.6253953760259955	0.0	1.0701032687056369	-0.552322106080847	0.0
72	2.424	0.9582437389151282	-0.7076862280223735	0.0	0.9198721601032935	-0.709578270678168	0.0	0.9180881228433715	-0.988062413083944	0.0	0.8922381937613892	-1.1144870931561983	0.0	0.9724572587928784	-1.087613208778565	0.0	0.954513418493709	-1.1490741602482375	0.0	0.870968307357078	-1.1046615263041286	0.0	0.9950848737322149	-0.7254973320425898	0.0	0.9644848694056728	-0.9951301477356234	0.0	0.9232623266003431	-1.110284781404322	0.0	1.014912131730316	-1.102943878600762	0.0	1.0057630548107959	-1.1575666774182414	0.0	0.9051570406556889	-1.0802556671442736	0.0	0.9854288980097311	-0.3964313118429267	0.0	1.0064748587400234	-0.2665981243544743	0.0	1.0106807848434076	-0.32285802976466477	0.0	0.8995350155882907	-0.4105070791680121	0.0	0.8221419542589002	-0.2873350634597118	0.0	0.778429885070602	-0.1334070112671194	0.0	1.0503542713491851	-0.4763293698953822	0.0	1.0868473810128787	-0.6269153084104516	0.0	1.0714962685967309	-0.5515285397780783	0.0
73	2.4576666666666664	0.9598876528054608	-0.7071777832125309	0.0	0.9203453987916544	-0.7106957187993393	0.0	0.9177923651378365	-0.9870332905651878	0.0	0.8917569633330297	-1.1164491547646236	0.0	0.97245779748089	-1.0876075258101474	0.0	0.9547135430453311	-1.1493989851995092	0.0	0.8718700820703094	-1.1043001392217457	0.0	0.998234570039915	-0.7259591042870189	0.0	0.966400380125456	-0.9934979507303606	0.0	0.9231734624493587	-1.1112412518196477	0.0	1.014897811952844	-1.102942896306671	0.0	1.0026783212014412	-1.1678717801115097	0.0	0.9065781125014105	-1.0787787104910858	0.0	0.9875006503210351	-0.39568558566393935	0.0	1.0068451318974296	-0.2663498335001264	0.0	1.009646028430657	-0.32167940433829345	0.0	0.8995545340225068	-0.4116723504973182	0.0	0.8100598326381582	-0.2954885905746069	0.0	0.7526384788684365	-0.14576613403440924	0.0	1.0546732210440384	-0.4763687895211094	0.0	1.0900890418278038	-0.6272019433254948	0.0	1.0729337276301085	-0.5506100145083763	0.0
